<svg width="75" height="74" viewBox="0 0 75 74" fill="none" xmlns="http://www.w3.org/2000/svg">
<path d="M38.563 73.46C34.583 73.46 30.7629 72.18 27.8929 69.91C26.2729 70.96 24.4829 71.79 22.5529 72.39C20.3429 73.07 18.0129 73.43 15.8229 73.43C10.0829 73.43 5.39293 71.07 2.60293 66.8L2.45293 66.57L2.31295 66.33C-1.78705 59 0.482926 51.12 2.13293 45.37C2.30293 44.8 2.46294 44.23 2.61294 43.68L2.66292 43.51L2.73293 43.29C6.20293 32.76 9.82293 24.06 13.7929 16.71L13.8629 16.59C16.3129 12.23 19.0829 7.7 23.6029 4.32C27.1429 1.62 31.8629 0 36.2129 0C39.4029 0 42.4029 0.85 44.9029 2.45L45.1829 2.63L45.4529 2.83C48.9129 5.46 50.8429 9.13 51.1929 13.73C52.3229 13.56 53.4629 13.48 54.6029 13.48C60.3429 13.48 65.3129 15.75 68.2229 19.7C70.2629 22.46 72.2329 27.23 70.0729 34.26L69.9829 34.54L69.9429 34.67C68.7729 38.06 66.7629 41.16 64.063 43.75C65.9129 44.56 67.4929 46.01 68.5229 47.91C68.5829 48.02 68.6429 48.13 68.7029 48.24C71.4729 49.44 73.2929 51.34 74.1329 53.9C75.0129 56.58 74.5529 59.5 72.8729 61.9C72.5929 62.3 72.3129 62.65 72.0129 62.99L71.8229 63.21L71.6929 63.34C71.2029 63.84 70.7329 64.26 70.3229 64.6C69.1929 71.09 64.7629 73.43 60.9229 73.43C60.1329 73.43 59.333 73.33 58.533 73.13L58.3229 73.07C57.7629 72.91 57.2729 72.73 56.8829 72.58C55.8929 72.92 54.6329 73.24 53.1229 73.26H52.9829C51.0729 73.24 49.263 72.66 47.783 71.61C45.073 72.73 42.2529 73.34 39.4129 73.44C39.1529 73.45 38.8729 73.46 38.5829 73.46H38.563Z" fill="#8F83E2"/>
<path d="M38.5729 72.0899C34.5029 72.0899 30.683 70.6799 27.993 68.1899C26.253 69.4599 24.313 70.4199 22.153 71.0799C20.063 71.7199 17.883 72.0599 15.833 72.0599C10.573 72.0599 6.29295 69.9299 3.76295 66.0499L3.63295 65.8599L3.52296 65.6599C-0.297038 58.8299 1.87296 51.2699 3.46296 45.7499C3.63296 45.1699 3.79295 44.5999 3.94295 44.0499L3.99296 43.8799L4.04295 43.7199C7.49295 33.2699 11.0729 24.6499 15.0029 17.3699L15.063 17.2599C17.443 13.0399 20.123 8.63988 24.423 5.42988C27.743 2.89988 32.143 1.37988 36.213 1.37988C39.143 1.37988 41.893 2.14988 44.173 3.60988L44.403 3.75988L44.623 3.92988C48.793 7.10988 49.8929 11.4399 49.8829 15.3699C51.4229 15.0399 53.0029 14.8599 54.6029 14.8599C59.9029 14.8599 64.463 16.9199 67.123 20.5199C68.973 23.0299 70.763 27.3799 68.763 33.8699L68.673 34.1399L68.643 34.2199C67.273 38.1799 64.653 41.7299 61.203 44.4199C63.753 44.6399 66.013 46.1599 67.313 48.5699C67.453 48.8299 67.5829 49.0799 67.6929 49.3199C69.3229 49.9499 71.813 51.2499 72.823 54.3399C73.563 56.6099 73.173 59.0799 71.743 61.1299C71.493 61.4799 71.243 61.7999 70.983 62.0799L70.823 62.2599L70.6929 62.3899C70.1129 62.9899 69.543 63.4599 69.073 63.8399C69.063 63.8499 69.043 63.8599 69.033 63.8799C67.963 71.4599 62.553 72.0599 60.903 72.0599C60.223 72.0599 59.523 71.9699 58.843 71.7999L58.653 71.7499C57.973 71.5599 57.393 71.3199 56.903 71.1099C55.943 71.4699 54.653 71.8699 53.083 71.8899H52.953C51.053 71.8699 49.3129 71.2099 47.9729 70.0199C45.2429 71.2499 42.313 71.9599 39.343 72.0599C39.083 72.0699 38.823 72.0799 38.563 72.0799L38.5729 72.0899Z" fill="#F9F8F4"/>
<path d="M66.1329 57.2101C66.0529 57.3301 65.963 57.4401 65.873 57.5301L65.783 57.6301C64.703 58.7401 62.983 59.6201 62.563 61.3001C62.053 62.5101 62.5529 65.6701 60.5029 65.1601C59.4029 64.8501 58.293 64.0101 57.083 64.0001C55.733 63.9501 54.333 65.0301 53.023 65.0401C51.613 65.0301 52.6629 62.9801 52.8829 62.2001C53.5929 60.5301 52.7829 59.3201 52.1629 58.0701C52.0429 58.2301 51.933 58.3801 51.823 58.5301C48.723 62.5101 43.983 65.0701 39.073 65.2201C35.173 65.4201 30.703 63.3401 30.843 58.8301C30.863 56.6301 31.593 54.6301 32.323 52.6001C32.733 51.4601 33.163 50.0101 32.883 49.6801C31.463 49.1801 29.603 55.0901 29.013 56.0401C27.193 59.9501 24.683 63.1201 20.113 64.5401C16.573 65.6301 11.713 65.7201 9.49297 62.3101C6.76297 57.4201 9.13297 51.0001 10.553 45.8601C13.543 36.8001 16.983 28.1301 21.033 20.6201C23.013 17.1001 25.233 13.3601 28.553 10.9001C31.683 8.49012 36.9529 7.13012 40.4729 9.39012C43.8629 11.9701 43.293 16.3601 42.173 21.2901C41.093 25.4801 39.583 29.4401 38.183 33.1201C37.813 34.1101 36.6229 36.5901 37.2229 37.1801C38.1429 37.4301 38.973 35.2501 39.453 34.2901C40.513 31.7101 41.533 29.1001 43.273 27.0101C48.503 19.4701 66.143 19.1001 62.213 31.8601L62.173 31.9901C60.813 35.9201 57.603 39.1901 53.783 41.0301C53.043 41.4301 52.043 41.7101 51.433 42.2501C51.053 42.6301 51.383 43.0701 52.013 43.5801C55.993 46.5601 55.7029 51.4601 53.6329 55.6301C54.8029 55.4201 56.133 55.2901 57.063 54.5501C57.793 54.0301 58.273 53.2001 59.073 52.2701C59.453 51.8401 60.023 51.2301 60.563 51.2601C60.863 51.2601 61.123 51.5301 61.293 51.8601C61.783 52.7401 61.983 53.8701 62.743 54.5901C63.863 55.7101 67.213 55.6501 66.113 57.2201L66.1329 57.2101Z" fill="#8F83E2"/>
</svg>
