<svg width="127" height="40" viewBox="0 0 127 40" fill="none" xmlns="http://www.w3.org/2000/svg">
<path d="M99.4853 39.1347C97.6946 39.1347 95.9785 38.6924 94.5129 37.8503L94.3796 37.7704C93.804 37.4133 93.2711 36.9976 92.7914 36.5286C92.1998 36.9709 91.5603 37.3866 90.8834 37.7704L90.7662 37.8343C89.1727 38.6604 87.254 39.1347 85.4846 39.1347C83.4221 39.1347 81.6101 38.5272 80.2031 37.3707C78.6575 38.3566 76.9254 38.9429 75.172 39.0814C74.8842 39.1081 74.5911 39.1241 74.3139 39.1241C71.6439 39.1241 69.2402 38.0475 67.7426 36.2141C67.167 36.5606 66.5701 36.8857 65.9626 37.1841C63.2925 38.4792 60.3452 39.1401 57.1955 39.1401C53.8326 39.1401 51.0665 38.3087 48.9774 36.6778C48.8868 36.6032 48.7908 36.5339 48.7002 36.454C45.2467 38.6657 41.1163 39.1401 38.2011 39.1401C36.4903 39.1401 34.6996 38.9748 33.0314 38.6604L32.9568 38.6444L32.8449 38.6178C31.0861 38.2074 29.5459 37.5145 28.2615 36.5606C26.5507 37.8023 24.6161 38.6284 22.6175 38.9589C21.9673 39.0761 21.2851 39.1347 20.5976 39.1347C18.3805 39.1347 16.3553 38.4792 14.8257 37.2801C13.568 38.0848 12.1237 38.6444 10.5195 38.9429L10.4502 38.9589L10.3436 38.9748C9.63478 39.0761 8.99523 39.1241 8.38234 39.1241C4.71029 39.1241 2.67974 37.4133 1.62449 35.9796C-1.08824 32.3023 0.121568 27.3352 1.47527 22.9703L1.49659 22.901C3.03149 18.2323 4.9288 13.5903 6.8421 9.81166L6.90606 9.68908L7.11391 9.31602C8.862 6.16626 11.2603 1.85468 16.3553 0.394385L16.5045 0.351749L16.6165 0.325101C17.5971 0.106591 18.5298 0 19.3825 0C22.0206 0 24.259 1.04459 25.682 2.9419C26.588 4.14104 27.1103 5.59068 27.2542 7.26948C27.8511 7.1842 28.4533 7.13624 29.0556 7.13624C31.8749 7.13624 34.3478 8.17017 35.9467 9.99287C36.2291 9.8543 36.5169 9.72106 36.8047 9.59315C39.1337 8.48994 42.4114 7.82375 45.5611 7.82375C48.4497 7.82375 52.3669 8.37802 55.0477 10.9255C55.6872 10.5258 56.3534 10.1528 57.0356 9.82232C59.7057 8.51126 62.7222 7.84507 65.9945 7.84507C69.512 7.84507 72.3473 8.6818 74.4205 10.334C74.5058 10.4032 74.5911 10.4725 74.6764 10.5471C77.0853 8.28209 79.8353 7.13624 82.8625 7.13624C82.9851 7.13624 83.1077 7.13624 83.2356 7.14157C84.7172 7.19486 86.0549 7.59458 87.2061 8.32472C88.9169 7.51464 90.7449 7.08827 92.5249 7.08827C95.2323 7.08827 97.6839 8.07957 99.416 9.87562C99.6185 10.0835 99.8104 10.3073 99.9916 10.5365C102.608 8.76175 105.46 7.86638 108.487 7.86638H108.844L109.004 7.88237C110.347 7.99962 111.493 8.33538 112.489 8.90564C112.916 8.70312 113.358 8.53257 113.8 8.38868C114.872 8.03693 116.065 7.8504 117.238 7.8504C119.402 7.8504 121.294 8.47928 122.711 9.67842L122.754 9.71573C125.52 12.1087 125.227 15.6102 125.12 16.9266L125.099 17.1451L125.088 17.2357C124.71 19.9697 123.873 22.4267 123.063 24.4998L123.298 24.7876L123.388 24.9102C123.564 25.1554 123.724 25.4165 123.868 25.7043C125.888 26.573 126.623 28.0227 126.879 29.1046C127.066 29.888 127.289 31.9132 125.424 33.7785C125.174 34.0344 124.934 34.2422 124.721 34.4234C124.555 35.4467 124.118 37.3333 122.248 38.4525C121.507 38.9002 120.644 39.1347 119.764 39.1347C118.885 39.1347 118.144 38.9056 117.568 38.6657C117.051 38.8416 116.343 39.0281 115.511 39.0281C115.213 39.0281 114.914 39.0015 114.621 38.9535L114.285 38.9002L113.966 38.7936C113.577 38.6657 113.214 38.4952 112.878 38.2767C111.562 38.8256 110.155 39.1134 108.684 39.1294H108.604C106.893 39.1294 105.406 38.767 104.175 38.0582C104.042 38.1221 103.903 38.1861 103.776 38.2447C102.47 38.8256 100.988 39.1401 99.5013 39.1401L99.4853 39.1347Z" fill="#212121"/>
<path d="M99.4854 38.4045C97.8225 38.4045 96.229 37.9941 94.8753 37.216L94.822 37.184L94.7687 37.152C94.1878 36.7896 93.5056 36.2726 92.8608 35.5478C92.1786 36.1074 91.4111 36.6404 90.5264 37.136L90.4198 37.1947C88.9382 37.9621 87.1422 38.4045 85.49 38.4045C83.3902 38.4045 81.5728 37.7063 80.2724 36.4485C78.7162 37.5517 76.9628 38.2126 75.1188 38.3512C74.8416 38.3778 74.5698 38.3885 74.314 38.3885C71.6013 38.3885 69.2136 37.1787 67.9292 35.2334C67.1991 35.7077 66.437 36.1394 65.6429 36.5231C63.074 37.7702 60.2334 38.4045 57.1956 38.4045C53.9978 38.4045 51.3864 37.6263 49.4251 36.0968C49.1906 35.9156 48.9721 35.729 48.7589 35.5318C45.412 37.8768 41.2763 38.4045 38.2011 38.4045C36.533 38.4045 34.7902 38.2446 33.1647 37.9355L33.0848 37.9195L33.0048 37.9035C31.1288 37.4611 29.5353 36.6937 28.2615 35.6384C26.5721 36.9708 24.5628 37.8928 22.4897 38.2392C21.8714 38.3512 21.2372 38.4045 20.5924 38.4045C18.322 38.4045 16.2914 37.669 14.8684 36.3632C13.7013 37.2053 12.2357 37.8768 10.381 38.2233L10.3064 38.2392L10.2317 38.2499C9.56023 38.3458 8.95266 38.3938 8.37707 38.3938C5.00881 38.3938 3.16479 36.8482 2.20548 35.5478C-0.304729 32.1476 0.867767 27.383 2.16284 23.1833L2.18416 23.1194C3.70308 18.4933 5.5844 13.8833 7.48171 10.142L7.54034 10.0354L7.74286 9.66764C9.44298 6.61382 11.7453 2.47278 16.5526 1.10309L16.6592 1.07111L16.7711 1.04446C17.6984 0.841942 18.5778 0.735352 19.3772 0.735352C21.7808 0.735352 23.8061 1.67868 25.0905 3.38413C26.0551 4.66321 26.5401 6.23543 26.5508 8.1434C27.3662 7.96752 28.2029 7.87159 29.045 7.87159C31.875 7.87159 34.3106 8.98013 35.7389 10.9201C36.1812 10.6856 36.6289 10.4724 37.0872 10.2699C39.3416 9.19864 42.502 8.56443 45.5559 8.56443C48.6097 8.56443 52.4523 9.15068 54.9412 11.8741C55.7033 11.3624 56.508 10.8988 57.3554 10.4884C59.9243 9.22529 62.8342 8.58575 65.9946 8.58575C69.3416 8.58575 72.0223 9.36919 73.9676 10.9148C74.2234 11.1173 74.4686 11.3358 74.7031 11.5596C77.0907 9.11337 79.8194 7.87692 82.8679 7.87692C82.9798 7.87692 83.0917 7.87692 83.2037 7.88225C84.9571 7.9462 86.2308 8.51113 87.1528 9.17732C88.8743 8.29262 90.7236 7.82895 92.5303 7.82895C95.0405 7.82895 97.3003 8.7403 98.8991 10.3925C99.2455 10.7549 99.56 11.1439 99.8318 11.5596C102.443 9.625 105.385 8.60174 108.492 8.60174H108.817L108.945 8.61772C110.326 8.73497 111.482 9.10804 112.452 9.74758C112.958 9.48644 113.486 9.26793 114.03 9.09205C115.026 8.76695 116.145 8.58575 117.243 8.58575C119.231 8.58575 120.963 9.15601 122.248 10.2379L122.285 10.2699C124.763 12.4177 124.497 15.6474 124.396 16.8625L124.374 17.0704L124.364 17.1343C123.996 19.8097 123.154 22.2933 122.205 24.6756C122.269 24.7342 122.328 24.7928 122.386 24.8515L122.498 24.9634L122.711 25.2245L122.786 25.3258C123.021 25.6562 123.191 25.9813 123.324 26.2638C124.252 26.6209 125.717 27.3937 126.16 29.259C126.314 29.9252 126.506 31.6413 124.902 33.2508C124.587 33.5706 124.284 33.8211 124.033 34.0236C123.895 34.9509 123.591 36.779 121.864 37.8129C121.23 38.1913 120.505 38.3938 119.754 38.3938C118.858 38.3938 118.123 38.1167 117.584 37.8715C117.062 38.0687 116.359 38.2872 115.501 38.2872C115.239 38.2872 114.978 38.2659 114.728 38.2233L114.451 38.1806L114.184 38.0953C113.731 37.9461 113.315 37.7223 112.953 37.4345C111.621 38.0527 110.187 38.3778 108.663 38.3938H108.588C106.845 38.3938 105.374 37.9994 104.191 37.2106C103.962 37.3386 103.717 37.4558 103.472 37.5624C102.251 38.1113 100.871 38.3991 99.4854 38.3991V38.4045Z" fill="#F9F8F4"/>
<path d="M120.755 29.1043C120.068 28.5821 120.025 26.4183 118.826 27.7986C118.325 28.3316 117.957 29.0191 117.334 29.2749C116.993 29.4188 116.423 29.6266 116.065 29.5467C117.899 25.5229 120.095 21.2433 120.75 16.7825C120.905 15.4821 120.931 13.8459 119.812 12.9665C117.648 11.4796 114.397 12.4549 112.521 14.1017C111.631 14.7253 111.439 13.7393 110.816 13.0998C110.171 12.4762 109.238 12.2684 108.354 12.263C103.648 12.3323 99.9277 15.6473 97.4867 19.6658C97.4121 19.799 97.2736 19.9909 97.3375 19.6924C97.6253 18.2747 97.8065 16.6439 97.4814 15.2316C96.6127 11.1332 91.7255 10.6855 88.5864 12.5668C87.9042 12.8706 87.318 13.6007 86.5985 13.7446C86.2947 13.6914 86.0975 13.3023 85.927 13.0944C85.3141 12.1138 84.1256 11.5169 82.9531 11.5382C78.7481 11.4476 75.9821 15.2049 73.9302 19.0635C73.8396 18.9356 73.9089 18.6531 73.8823 18.4293C73.8663 16.4947 73.0242 14.6826 71.4573 13.6061C69.9864 12.4442 66.8579 12.0765 64.5396 12.3057C60.3079 12.5988 56.4707 14.6453 53.7739 17.7471C53.5981 17.8857 53.4329 18.2481 53.257 18.3014C54.3655 11.3091 43.7011 11.357 38.8726 13.4782C36.5915 14.4215 34.5237 15.9298 32.8609 17.7311C32.733 17.8324 32.9408 17.4433 33.0367 17.1769C33.0634 17.0649 33.1273 16.937 33.154 16.8251C35.0566 10.4403 26.3908 10.387 23.4542 13.8672C22.1752 15.157 21.5516 16.8731 20.8588 18.5572C20.5763 19.1648 19.9101 20.4279 19.649 19.7883C19.569 19.2554 20.0327 18.3334 20.2832 17.6938C21.3384 14.6613 24.0778 8.53237 22.3031 5.79832C20.8374 3.58656 17.3146 4.30605 15.4546 5.5958C10.9618 8.84148 7.80142 18.2321 5.75488 23.9027C4.93947 26.786 3.37258 30.7832 5.17929 33.4426C7.26314 35.9794 12.3528 34.4445 13.9624 32.2328C14.959 31.0603 15.5292 29.6426 16.1102 28.257C16.6484 26.7007 18.2047 25.0752 17.3253 27.6334C16.1475 30.4261 15.5079 33.6664 19.0787 34.5778C22.7614 35.4145 26.7159 33.1335 28.448 29.8185C28.5866 29.5947 28.6452 29.6906 28.7092 29.8931C29.2741 31.9024 30.777 33.5332 33.4738 34.2633C38.5475 35.3292 45.8276 35.0041 48.8228 30.2555C49.0307 29.9464 49.1852 29.4188 49.3664 29.1363C49.6595 30.6659 50.2511 32.1102 51.4929 33.0802C52.8999 34.306 55.053 34.791 57.414 34.759C62.2426 34.7696 66.8366 32.3767 69.8265 28.694C70.1249 28.3582 70.4127 27.9105 70.6952 27.5854C70.7911 27.5481 70.7165 27.756 70.7059 27.8306C70.2795 29.9358 69.8851 32.3394 71.5746 33.8796C75.0441 36.1926 79.2971 33.6238 81.1091 29.9677C82.5534 27.0738 83.8858 22.9114 85.2022 19.8256C85.4686 19.0742 86.6838 18.4613 86.1508 19.751C85.3194 21.9095 84.3974 24.2491 83.5394 26.4662C82.5321 29.0084 80.4163 33.6984 84.3814 34.6364C88.2347 35.4252 91.7628 32.2541 93.4256 29.1896C93.7827 28.6407 94.0705 27.8892 94.4489 27.3456C94.4596 27.3456 94.4649 27.3723 94.4649 27.4096C94.1291 29.5307 94.2837 32.0622 96.0318 33.5545C98.1902 35.4252 101.628 34.9722 103.674 33.1974C105.231 31.7851 105.103 33.4106 106.217 34.1621C109.281 35.8409 112.985 33.8423 114.797 31.2575C114.872 31.1669 114.941 31.0976 115.005 31.0763C115.133 31.023 115.239 31.2148 115.335 31.428C115.442 31.6572 115.538 31.9024 115.58 32.1582C115.847 32.7764 114.648 34.4765 115.495 34.6257C116.428 34.6417 117.334 33.7997 118.288 34.2154C118.842 34.3539 119.444 34.8975 119.993 34.6684C120.484 34.258 120.398 33.336 120.596 32.7338C120.777 31.945 121.438 31.4866 122.019 30.9857C122.258 30.7778 122.536 30.5113 122.589 30.2022C122.626 29.6693 121.224 29.5467 120.803 29.147L120.755 29.1043ZM29.7911 22.5011C28.2402 25.9866 29.7378 24.3984 27.1156 22.8635C27.0517 22.8102 26.8811 22.7089 26.9717 22.6236C27.1583 22.4744 27.4621 22.3465 27.7019 22.2346C28.917 21.7549 30.0256 21.0994 30.9742 20.22C30.6491 20.8702 30.1268 21.6963 29.8177 22.4478L29.7911 22.5011ZM50.3524 23.4604C49.8621 24.7128 49.5956 26.0292 49.425 27.1964C49.3984 27.2284 49.3611 27.1857 49.3025 27.1004C48.018 24.9686 43.925 26.4822 41.6493 25.9439C40.8712 25.8214 39.4695 25.2245 40.8179 24.5796C42.3208 23.9827 44.1008 24.4463 45.6304 24.1852C47.6397 24.02 49.3931 23.2685 50.832 22.1813C50.8001 22.4211 50.4643 23.0926 50.3684 23.3964L50.3417 23.4604H50.3524Z" fill="#212121"/>
</svg>
